<svg width="307" height="186" viewBox="0 0 307 186" fill="none" xmlns="http://www.w3.org/2000/svg">
<mask id="mask0_1_27" style="mask-type:luminance" maskUnits="userSpaceOnUse" x="0" y="0" width="307" height="186">
<path d="M307 0H0V186H307V0Z" fill="white"/>
</mask>
<g mask="url(#mask0_1_27)">
<path d="M305.15 10.9008C305.118 10.9291 305.086 10.9291 305.086 10.9885L305.019 11.0453C304.92 11.1356 304.885 11.164 304.92 11.164L209.674 99.809L187.24 120.694C187.2 120.668 187.154 120.649 187.106 120.637L186.71 120.462L94.9756 84.2039L98.3203 82.8258L113.785 76.4026L135.345 67.4555C135.383 67.4271 135.428 67.4067 135.476 67.3961H135.511L296.395 0.663298C297.93 0.0244756 299.67 -0.127541 301.319 0.232743C302.965 0.59303 304.424 1.4438 305.45 2.64264C306.476 3.8415 307.006 5.31577 306.95 6.81895C306.895 8.32212 306.26 9.76308 305.15 10.9008Z" fill="url(#paint0_linear_1_27)"/>
<g style="mix-blend-mode:multiply" opacity="0.2">
<path d="M1.23352 55.2237H1.2681C1.2335 55.252 1.23352 55.2802 1.20181 55.311C1.19935 55.2951 1.20093 55.2792 1.20642 55.264C1.21192 55.2489 1.22118 55.235 1.23352 55.2237Z" fill="black"/>
</g>
<g style="mix-blend-mode:multiply" opacity="0.2">
<path d="M187.252 120.694C187.252 120.694 184.237 119.727 179.004 117.967C173.76 116.119 166.287 113.657 157.38 110.429C148.471 107.26 138.105 103.476 127.08 99.3112C116.055 95.1461 104.328 90.5706 92.6046 85.9951C86.7776 83.6467 80.9507 81.3293 75.2198 79.0119C69.489 76.7538 63.8922 74.3667 58.4294 72.1499C47.5679 67.6596 37.4669 63.3757 28.8546 59.5951C24.5164 57.7448 20.6094 55.9822 17.0987 54.4028C15.3768 53.6286 13.7219 52.8751 12.2623 52.2609C10.9521 51.7143 9.49954 51.4916 8.05816 51.6157C5.96878 51.784 4.01109 52.5928 2.5225 53.9022C2.3917 54.0121 2.27 54.1303 2.15831 54.2557C2.05634 54.3435 1.95731 54.4596 1.86699 54.5474C1.77016 54.6263 1.68143 54.7128 1.60185 54.8054C2.76205 53.1456 4.56992 51.921 6.68226 51.3639C8.79463 50.8067 11.0643 50.9561 13.0606 51.7835L94.9937 84.1964L98.3384 82.8183C108.827 87.0119 119.301 91.208 129.105 95.2854C139.966 99.7732 150.067 104.085 158.709 107.84C167.35 111.595 174.442 114.849 179.441 117.079C183.182 118.782 185.699 119.954 186.725 120.454L187.121 120.63C187.169 120.644 187.213 120.666 187.252 120.694Z" fill="black"/>
</g>
<path d="M187.253 120.694L151.126 154.341C151.101 154.367 151.079 154.397 151.062 154.429C151.062 154.429 151.027 154.4 151.027 154.429L122.215 181.267C121.799 181.661 121.357 182.033 120.893 182.382C119.08 183.742 116.97 184.756 114.694 185.358C112.418 185.961 110.025 186.139 107.668 185.883C105.31 185.627 103.037 184.941 100.993 183.869C98.9493 182.797 97.1776 181.362 95.7902 179.654L38.3304 108.96V108.932C38.2634 108.901 38.2634 108.873 38.2634 108.873L37.57 108.021L1.80393 64.0493C0.768679 62.8328 0.152236 61.3773 0.0287056 59.8575C-0.0948245 58.3381 0.279822 56.8194 1.10762 55.4841C1.13838 55.4495 1.16114 55.4101 1.17461 55.368L1.18759 55.3657L1.1984 55.3587L1.20511 55.3486L1.20666 55.337V55.3086C1.20418 55.2926 1.20578 55.2766 1.21133 55.2614C1.21688 55.2462 1.22625 55.2323 1.23872 55.2209H1.27366C1.33776 55.1022 1.4718 54.9861 1.6029 54.8106C2.7631 53.1507 4.57098 51.9259 6.68332 51.3688C8.79566 50.8119 11.0654 50.9613 13.0616 51.7886L94.9948 84.2016L186.729 120.46L187.125 120.635C187.171 120.647 187.215 120.668 187.253 120.694Z" fill="url(#paint1_linear_1_27)"/>
<g style="mix-blend-mode:multiply" opacity="0.2">
<path d="M209.674 99.8096L187.24 120.695C187.2 120.668 187.154 120.649 187.106 120.638L94.9756 84.2044L98.3203 82.8263L113.785 76.4031L209.674 99.8096Z" fill="black"/>
</g>
<g style="mix-blend-mode:screen" opacity="0.5">
<path d="M1.23344 55.2237H1.26802C1.23342 55.2802 1.20173 55.311 1.20173 55.3393C1.19704 55.2987 1.20824 55.2579 1.23344 55.2237Z" fill="white"/>
</g>
<g style="mix-blend-mode:screen" opacity="0.5">
<path d="M187.252 120.694C187.252 120.694 184.237 119.727 179.004 117.967C173.76 116.119 166.287 113.657 157.38 110.429C148.471 107.26 138.105 103.476 127.08 99.3112C116.055 95.1461 104.328 90.5706 92.6046 85.9951C86.7776 83.6467 80.9507 81.3293 75.2198 79.0119C69.489 76.7538 63.8922 74.3667 58.4294 72.1499C47.5679 67.6596 37.4669 63.3757 28.8546 59.5951C24.5164 57.7448 20.6094 55.9822 17.0987 54.4028C15.3768 53.6286 13.7219 52.8751 12.2623 52.2609C10.9521 51.7143 9.49954 51.4916 8.05816 51.6157C5.96878 51.784 4.01109 52.5928 2.5225 53.9022C2.3917 54.0121 2.27 54.1303 2.15831 54.2557C2.05193 54.3453 1.95448 54.4431 1.86699 54.5474C1.77016 54.6263 1.68143 54.7128 1.60185 54.8054C2.76205 53.1456 4.56992 51.921 6.68226 51.3639C8.79463 50.8067 11.0643 50.9561 13.0606 51.7835L94.9937 84.1964L186.728 120.454L187.124 120.63C187.171 120.644 187.214 120.666 187.252 120.694Z" fill="white"/>
</g>
<g style="mix-blend-mode:multiply" opacity="0.2">
<path d="M151.021 154.429L122.21 181.268C121.793 181.661 121.351 182.033 120.887 182.382C119.075 183.742 116.964 184.756 114.688 185.358C112.412 185.961 110.02 186.14 107.662 185.883C105.305 185.627 103.032 184.941 100.988 183.87C98.9438 182.798 97.1721 181.363 95.7847 179.655L38.3249 108.961C38.724 109.342 40.3789 111.071 42.9865 113.864C45.9 117.09 50.2061 121.637 55.1415 127.211C60.077 132.785 65.8049 139.324 71.7979 146.424C77.826 153.464 84.0841 161.133 90.3773 168.746L95.0126 174.527L97.2968 177.399L97.8941 178.104C98.0453 178.309 98.2116 178.506 98.3923 178.692C98.7416 179.112 99.1317 179.504 99.5577 179.864C101.084 181.231 102.932 182.284 104.97 182.948C107.007 183.612 109.185 183.871 111.349 183.706C113.464 183.552 115.519 183.003 117.377 182.093C118.266 181.66 119.098 181.14 119.859 180.545L120.523 180.047L120.785 179.841L121.077 179.546L122.3 178.491C125.546 175.616 128.66 172.948 131.574 170.491C137.305 165.562 142.272 161.603 145.649 158.728C148.676 156.287 150.593 154.739 151.021 154.429Z" fill="black"/>
</g>
<g style="mix-blend-mode:screen" opacity="0.5">
<path d="M306.044 9.49185C306.449 8.68078 306.65 7.79988 306.627 6.91239C306.604 6.02493 306.359 5.15296 305.913 4.359C305.319 3.17626 304.293 2.20349 303.003 1.59557C301.715 0.987639 300.232 0.779448 298.793 1.00412C296.98 1.5351 295.247 2.25412 293.627 3.1461C291.739 3.99513 289.751 4.90604 287.697 5.84282C279.417 9.62862 269.715 13.941 259.281 18.4881C254.037 20.7177 248.653 23.1331 243.12 25.4093C237.588 27.6854 232.029 30.0751 226.432 32.4209C215.172 37.0661 203.911 41.6596 193.28 45.8557C182.648 50.0519 172.716 53.8919 164.145 57.0893C155.567 60.3461 148.347 62.839 143.313 64.6867C138.975 66.2351 136.193 67.1512 135.531 67.3861L296.415 0.653184C297.951 0.0206569 299.684 -0.126496 301.33 0.236255C302.974 0.599006 304.427 1.44976 305.45 2.64679C306.473 3.84382 307 5.31487 306.945 6.8149C306.892 8.31492 306.26 9.75337 305.156 10.8906C305.508 10.4551 305.805 9.98589 306.044 9.49185Z" fill="white"/>
</g>
<g style="mix-blend-mode:screen" opacity="0.3">
<path d="M298.429 8.69961L286.342 19.9358C277.632 28.032 268.934 36.1277 260.246 44.2222L140.163 71.9435C168.313 60.2687 196.477 48.5938 224.654 36.919C247.073 27.6286 269.507 18.3203 291.955 8.99386C294.108 8.11386 296.261 7.20286 298.414 6.32286C301.051 5.20802 299.55 7.64155 298.429 8.69961Z" fill="white"/>
</g>
<g style="mix-blend-mode:screen" opacity="0.3">
<path d="M176.026 122.661C170.527 127.738 165.051 132.832 159.599 137.944C158.076 139.353 156.555 140.782 155.031 142.197L9.41193 57.0715C11.0871 57.3357 12.6924 57.873 14.1463 58.656C37.7282 67.9825 61.3187 77.3107 84.918 86.6405C115.29 98.663 145.659 110.67 176.026 122.661Z" fill="white"/>
</g>
</g>
<defs>
<linearGradient id="paint0_linear_1_27" x1="37.5295" y1="60.368" x2="306.953" y2="60.368" gradientUnits="userSpaceOnUse">
<stop stop-color="#00F8AE"/>
<stop offset="1" stop-color="#0083FC"/>
</linearGradient>
<linearGradient id="paint1_linear_1_27" x1="165.72" y1="94.3595" x2="38.2982" y2="150.415" gradientUnits="userSpaceOnUse">
<stop stop-color="#5DBEDD"/>
<stop offset="0.162" stop-color="#92EADA"/>
<stop offset="0.307" stop-color="#7CC3DA"/>
<stop offset="0.446" stop-color="#73E5EC"/>
<stop offset="0.581" stop-color="#48F2E8"/>
<stop offset="0.712" stop-color="#39CFF0"/>
<stop offset="0.842" stop-color="#23D1F7"/>
<stop offset="0.967" stop-color="#00BCF8"/>
<stop offset="1" stop-color="#209BF4"/>
</linearGradient>
</defs>
</svg>
